<mxfile host="app.diagrams.net" modified="2024-03-20T15:48:34.514Z" agent="Mozilla/5.0 (Windows NT 10.0; Win64; x64; rv:124.0) Gecko/20100101 Firefox/124.0" etag="6Mz4xZQUuB8mjijUrFzP" version="24.0.7" type="device">
  <diagram name="Page-1" id="dGpcCCkFvZ3gfHvRZ5da">
    <mxGraphModel dx="1235" dy="802" grid="0" gridSize="10" guides="1" tooltips="1" connect="1" arrows="1" fold="1" page="0" pageScale="1" pageWidth="850" pageHeight="1100" math="0" shadow="0">
      <root>
        <mxCell id="0" />
        <mxCell id="1" parent="0" />
        <mxCell id="tEiFY6gRIIijF9fFw3W0-7" value="" style="ellipse;whiteSpace=wrap;html=1;" vertex="1" parent="1">
          <mxGeometry x="-190" y="-10" width="80" height="80" as="geometry" />
        </mxCell>
        <mxCell id="tEiFY6gRIIijF9fFw3W0-6" value="" style="ellipse;whiteSpace=wrap;html=1;" vertex="1" parent="1">
          <mxGeometry x="-195" y="-5" width="80" height="80" as="geometry" />
        </mxCell>
        <mxCell id="b6xKFxV9w5poojM2PfyC-1" value="&lt;div&gt;Mouse Trap&amp;nbsp;&lt;/div&gt;&lt;div&gt;Agent&lt;/div&gt;" style="ellipse;whiteSpace=wrap;html=1;aspect=fixed;" parent="1" vertex="1">
          <mxGeometry x="-200" width="80" height="80" as="geometry" />
        </mxCell>
        <mxCell id="b6xKFxV9w5poojM2PfyC-4" value="CommCenter Agent" style="ellipse;whiteSpace=wrap;html=1;" parent="1" vertex="1">
          <mxGeometry width="80" height="80" as="geometry" />
        </mxCell>
        <mxCell id="b6xKFxV9w5poojM2PfyC-5" value="&lt;div&gt;User&lt;/div&gt;&lt;div&gt;&amp;nbsp;Agent&lt;/div&gt;" style="ellipse;whiteSpace=wrap;html=1;" parent="1" vertex="1">
          <mxGeometry x="200" width="80" height="80" as="geometry" />
        </mxCell>
        <mxCell id="b6xKFxV9w5poojM2PfyC-12" value="" style="endArrow=classic;startArrow=classic;html=1;rounded=0;fontSize=12;startSize=8;endSize=8;curved=1;exitX=1;exitY=0.5;exitDx=0;exitDy=0;entryX=0;entryY=0.5;entryDx=0;entryDy=0;" parent="1" source="b6xKFxV9w5poojM2PfyC-4" target="b6xKFxV9w5poojM2PfyC-5" edge="1">
          <mxGeometry width="50" height="50" relative="1" as="geometry">
            <mxPoint x="159" y="175" as="sourcePoint" />
            <mxPoint x="209" y="125" as="targetPoint" />
          </mxGeometry>
        </mxCell>
        <mxCell id="9xyZSte4ERz5kFR3u_ni-12" value="" style="group" parent="1" vertex="1" connectable="0">
          <mxGeometry x="115" y="10" width="50" height="25" as="geometry" />
        </mxCell>
        <mxCell id="9xyZSte4ERz5kFR3u_ni-13" value="" style="rounded=0;whiteSpace=wrap;html=1;" parent="9xyZSte4ERz5kFR3u_ni-12" vertex="1">
          <mxGeometry width="50" height="25" as="geometry" />
        </mxCell>
        <mxCell id="9xyZSte4ERz5kFR3u_ni-14" value="" style="triangle;whiteSpace=wrap;html=1;rotation=90;" parent="9xyZSte4ERz5kFR3u_ni-12" vertex="1">
          <mxGeometry x="13" y="-11.5" width="24" height="48" as="geometry" />
        </mxCell>
        <mxCell id="tEiFY6gRIIijF9fFw3W0-2" value="" style="group" vertex="1" connectable="0" parent="1">
          <mxGeometry x="-85" y="10" width="50" height="25" as="geometry" />
        </mxCell>
        <mxCell id="tEiFY6gRIIijF9fFw3W0-3" value="" style="rounded=0;whiteSpace=wrap;html=1;" vertex="1" parent="tEiFY6gRIIijF9fFw3W0-2">
          <mxGeometry width="50" height="25" as="geometry" />
        </mxCell>
        <mxCell id="tEiFY6gRIIijF9fFw3W0-4" value="" style="triangle;whiteSpace=wrap;html=1;rotation=90;" vertex="1" parent="tEiFY6gRIIijF9fFw3W0-2">
          <mxGeometry x="13" y="-11.5" width="24" height="48" as="geometry" />
        </mxCell>
        <mxCell id="tEiFY6gRIIijF9fFw3W0-1" value="" style="endArrow=classic;startArrow=classic;html=1;rounded=0;fontSize=12;startSize=8;endSize=8;curved=1;exitX=1;exitY=0.5;exitDx=0;exitDy=0;entryX=0;entryY=0.5;entryDx=0;entryDy=0;" edge="1" parent="1" source="b6xKFxV9w5poojM2PfyC-1" target="b6xKFxV9w5poojM2PfyC-4">
          <mxGeometry width="50" height="50" relative="1" as="geometry">
            <mxPoint x="-29" y="118" as="sourcePoint" />
            <mxPoint x="21" y="68" as="targetPoint" />
          </mxGeometry>
        </mxCell>
      </root>
    </mxGraphModel>
  </diagram>
</mxfile>
